<?xml version="1.0" encoding="utf-8"?>
<!-- Generator: Adobe Illustrator 24.2.0, SVG Export Plug-In . SVG Version: 6.00 Build 0)  -->
<svg version="1.1" id="Livello_1" xmlns="http://www.w3.org/2000/svg" xmlns:xlink="http://www.w3.org/1999/xlink" x="0px" y="0px"
	 viewBox="0 0 351.2 380.7" style="enable-background:new 0 0 351.2 380.7;" xml:space="preserve">
<style type="text/css">
	.st0{fill:#47848F;}
</style>
<g>
	<path class="st0" d="M123.9,81.8c-49.8-9.1-89.1,0.4-104.8,27.6c-11.7,20.3-8.4,47.1,8.1,75.9c1.4,2.4,4.5,3.3,7,1.9
		c2.4-1.4,3.3-4.5,1.9-7l0,0c-14.8-25.9-17.7-49.1-8.1-65.7c13-22.6,48.1-31,94.1-22.6c2.8,0.5,5.4-1.2,6-4c0.5-2.8-1.2-5.4-4-6
		C124,81.9,124,81.8,123.9,81.8L123.9,81.8z M53.1,220.2c20.1,22.1,46.3,42.8,76.1,60.1c72.2,41.7,149,52.8,186.9,27
		c2.3-1.6,2.9-4.8,1.3-7.1c-1.6-2.3-4.7-2.9-7-1.3c-33.9,23.1-106.9,12.5-176-27.4c-28.9-16.7-54.2-36.8-73.6-58.1
		c-1.9-2.1-5.1-2.3-7.2-0.5c-2.1,1.9-2.3,5.1-0.5,7.2C53,220.1,53.1,220.1,53.1,220.2L53.1,220.2z"/>
	<path class="st0" d="M304,214c32.6-38.5,44-77.2,28.3-104.3c-11.5-19.9-35.9-30.5-68.2-30.9c-2.8,0-5.1,2.2-5.2,5
		c0,2.8,2.2,5.1,5,5.2c29.1,0.4,50.1,9.4,59.5,25.8c13,22.5,2.9,57-27.3,92.6c-1.9,2.1-1.7,5.3,0.5,7.2s5.3,1.7,7.2-0.5
		C303.9,214.1,303.9,214,304,214L304,214z M220.3,83.5c-29.5,6.3-60.8,18.7-90.9,36C54.8,162.6,6.2,226,13,272
		c0.3,2.8,2.9,4.8,5.7,4.5s4.8-2.9,4.5-5.7c0-0.1,0-0.2,0-0.3c-6-40.8,40.1-101,111.4-142.1c29.2-16.9,59.6-28.8,88-34.9
		c2.7-0.7,4.4-3.4,3.8-6.1C225.5,84.7,222.9,83,220.3,83.5z"/>
	<path class="st0" d="M99.5,303.9c17,47.6,44.9,76.8,76.2,76.8c22.9,0,44-15.6,60.5-43c1.5-2.4,0.8-5.5-1.5-7.1
		c-2.4-1.5-5.5-0.8-7.1,1.5c-0.1,0.1-0.1,0.2-0.2,0.3c-14.8,24.6-33,38.1-51.7,38.1c-26,0-50.9-26.1-66.6-70.1
		c-0.9-2.7-3.8-4.1-6.5-3.2s-4.1,3.8-3.2,6.5C99.5,303.8,99.5,303.8,99.5,303.9L99.5,303.9z M255.1,294.6
		c8.8-28.2,13.5-60.7,13.5-94.6c0-84.5-29.6-157.4-71.7-176.1c-2.6-1.1-5.6,0.1-6.7,2.7c-1.1,2.5,0,5.5,2.6,6.6
		c37.6,16.7,65.7,85.8,65.7,166.8c0,32.9-4.6,64.3-13.1,91.5c-0.9,2.7,0.5,5.6,3.2,6.5c2.7,0.9,5.6-0.5,6.5-3.2
		C255.1,294.8,255.1,294.7,255.1,294.6z M351.2,289.6c0-13.5-10.9-24.4-24.4-24.4c-13.5,0-24.4,10.9-24.4,24.4c0,0,0,0,0,0
		c0,13.5,10.9,24.4,24.4,24.4C340.3,314,351.2,303.1,351.2,289.6z M341,289.6c0,7.9-6.4,14.2-14.2,14.2c-7.9,0-14.2-6.4-14.2-14.2
		c0,0,0,0,0,0c0-7.9,6.4-14.2,14.2-14.2C334.7,275.4,341,281.8,341,289.6z M24.4,314c13.5,0,24.4-10.9,24.4-24.4
		s-10.9-24.4-24.4-24.4c0,0,0,0,0,0C10.9,265.2,0,276.1,0,289.6C0,303.1,10.9,314,24.4,314z M24.4,303.8c-7.9,0-14.2-6.4-14.2-14.2
		c0-7.9,6.4-14.2,14.2-14.2s14.2,6.4,14.2,14.2S32.3,303.8,24.4,303.8L24.4,303.8z"/>
	<path class="st0" d="M175.8,48.8c13.5,0,24.4-10.9,24.4-24.4S189.3,0,175.8,0s-24.4,10.9-24.4,24.4S162.3,48.8,175.8,48.8z
		 M175.8,38.6c-7.9,0-14.2-6.4-14.2-14.2s6.4-14.2,14.2-14.2c7.9,0,14.2,6.4,14.2,14.2S183.6,38.6,175.8,38.6L175.8,38.6z
		 M179.5,217.3c-9.5,2.1-18.9-4-21-13.5c-2.1-9.5,4-18.9,13.5-21c9.6-1.9,18.9,4.3,20.8,13.9C194.7,206,188.8,215.1,179.5,217.3
		L179.5,217.3z"/>
</g>
</svg>
