<?xml version="1.0" encoding="utf-8"?>
<!-- Generator: Adobe Illustrator 24.2.0, SVG Export Plug-In . SVG Version: 6.00 Build 0)  -->
<svg version="1.1" id="Livello_1" xmlns="http://www.w3.org/2000/svg" xmlns:xlink="http://www.w3.org/1999/xlink" x="0px" y="0px"
	 viewBox="0 0 1766.7 2003.6" style="enable-background:new 0 0 1766.7 2003.6;" xml:space="preserve">
<style type="text/css">
	.st0{fill:#E44D26;}
	.st1{fill:#F16529;}
	.st2{fill:#EBEBEB;}
	.st3{fill:#FFFFFF;}
</style>
<path class="st0" d="M1766.7,0l-160.9,1803l-723.5,200.6l-721.5-200.3L0,0H1766.7L1766.7,0z"/>
<path class="st1" d="M883.3,1850.3l584.6-162.1l137.5-1540.8H883.3V1850.3z"/>
<path class="st2" d="M570.5,589.8h312.9V368.6H328.8L334,428l54.4,609.5h494.9V816.3H590.7L570.5,589.8z M620.3,1148h-222l31,347.3
	l453.1,125.8l1-0.3v-230.1l-1,0.3l-246.3-66.5L620.3,1148L620.3,1148z"/>
<path class="st3" d="M882.6,1037.4h272.3l-25.7,286.8l-246.7,66.6V1621l453.4-125.7l3.3-37.4l52-582.3l5.4-59.4H882.6V1037.4
	L882.6,1037.4z M882.6,589.3v0.5h534.2l4.4-49.7l10.1-112.1l5.3-59.3h-554V589.3L882.6,589.3z"/>
</svg>
