<svg width="128" height="128" viewBox="0 0 128 128" fill="none" xmlns="http://www.w3.org/2000/svg">
  <path d="M39.267 108.97L38.983 108.403C38.416 107.268 38.416 106.133 38.7 104.714H8.05899L53.454 24.14L72.463 58.47L78.704 53.93L59.695 19.6C59.412 19.033 57.142 15.629 53.454 15.629C51.751 15.629 49.198 16.196 47.212 19.884L1.24999 101.31C0.965991 102.162 -1.02001 105.85 0.681991 108.97C1.81699 110.673 3.51999 112.375 7.49199 112.375H46.077C42.105 112.375 40.119 110.672 39.267 108.97Z" fill="#00C58E" />
  <path d="M126.65 101.59L89.767 35.201C89.2 34.634 87.214 30.945 83.525 30.945C81.823 30.945 79.27 31.796 77.284 35.201L72.461 43.145V58.466L83.526 39.457L120.125 104.711H106.223C106.456 106.062 106.257 107.452 105.655 108.683L105.371 108.967C103.669 112.087 99.413 112.371 98.846 112.371H120.408C121.259 112.371 125.231 112.088 127.217 108.967C128.068 107.548 128.636 104.995 126.65 101.59Z" fill="#00C58E" />
  <path d="M106.51 108.97V108.686L106.794 108.119C107.077 106.984 107.361 105.849 107.077 104.714L105.943 101.31L77.005 50.809L72.749 43.149H72.465L68.209 50.809L39.271 101.309L38.137 104.714C37.8621 106.157 38.061 107.65 38.704 108.97C39.839 110.672 41.541 112.375 45.513 112.375H99.419C100.27 112.375 104.526 112.091 106.512 108.97H106.51ZM72.464 58.469L98.85 104.714H46.079L72.464 58.469Z" fill="#00C58E" />
</svg>